<?xml version="1.0" standalone="no"?>
<!DOCTYPE svg PUBLIC "-//W3C//DTD SVG 20010904//EN"
 "http://www.w3.org/TR/2001/REC-SVG-20010904/DTD/svg10.dtd">
<svg version="1.0" xmlns="http://www.w3.org/2000/svg"
 width="192.000000pt" height="192.000000pt" viewBox="0 0 192.000000 192.000000"
 preserveAspectRatio="xMidYMid meet">

<g transform="translate(0.000000,192.000000) scale(0.100000,-0.100000)"
fill="#000000" stroke="none">
<path d="M978 1703 c-36 -40 -30 -152 9 -168 45 -17 77 84 46 144 -22 42 -34
47 -55 24z m37 -79 c0 -19 -6 -30 -17 -32 -14 -3 -18 3 -18 26 0 16 3 32 7 36
14 13 28 -1 28 -30z"/>
<path d="M965 1437 c-29 -63 -66 -213 -100 -406 -13 -79 -27 -146 -30 -149 -6
-6 -2 -13 -58 80 -73 118 -123 151 -162 108 -33 -36 -29 -160 13 -485 l37
-290 45 3 c25 1 122 12 215 23 112 13 214 19 300 18 l130 -3 7 84 c17 207 28
627 17 658 -18 53 -50 44 -100 -30 -58 -87 -99 -138 -110 -138 -5 0 -9 11 -9
24 0 26 -50 295 -74 398 -8 37 -25 88 -37 113 -29 63 -53 61 -84 -8z m82 -79
c19 -54 69 -303 98 -481 4 -26 11 -37 21 -35 8 2 47 50 88 108 110 159 110
159 102 -116 -3 -126 -9 -277 -12 -335 l-6 -106 -192 -6 c-105 -4 -251 -15
-325 -25 -91 -12 -134 -15 -137 -8 -15 46 -74 601 -67 641 13 80 58 53 155
-96 58 -89 74 -107 80 -92 4 10 21 97 38 193 54 309 91 438 123 428 7 -3 22
-34 34 -70z"/>
<path d="M1356 1344 c-10 -25 -7 -114 4 -135 27 -50 76 5 68 76 -3 25 -11 52
-18 60 -16 20 -46 19 -54 -1z m39 -67 c0 -39 -19 -38 -23 2 -3 24 0 32 10 29
7 -3 13 -17 13 -31z"/>
<path d="M560 1280 c-15 -29 -16 -110 -1 -138 28 -53 81 -5 81 73 0 70 -54
114 -80 65z m50 -50 c8 -14 8 -26 0 -40 -21 -39 -48 -13 -36 35 8 30 22 32 36
5z"/>
<path d="M1588 1029 c-16 -11 -28 -29 -28 -40 0 -24 2 -24 50 1 26 13 40 27
40 40 0 26 -27 25 -62 -1z"/>
<path d="M296 952 c-17 -16 -3 -44 29 -58 49 -20 67 -18 63 7 -3 20 -80 63
-92 51z"/>
<path d="M1574 679 c-9 -16 8 -29 48 -35 27 -5 36 -2 42 11 3 9 4 21 0 26 -7
13 -81 11 -90 -2z"/>
<path d="M298 578 c-27 -15 -38 -29 -38 -45 0 -28 1 -28 50 -3 30 16 40 26 40
45 0 30 -5 31 -52 3z"/>
<path d="M1567 394 c-15 -15 -6 -35 26 -54 41 -26 47 -25 47 3 0 16 -9 28 -27
38 -16 7 -31 15 -34 16 -3 2 -8 0 -12 -3z"/>
<path d="M385 274 c-35 -37 -41 -54 -28 -68 8 -8 83 64 83 80 0 29 -23 23 -55
-12z"/>
</g>
</svg>
